<?xml version="1.0" encoding="utf-8"?>
<!-- Generator: Adobe Illustrator 25.0.0, SVG Export Plug-In . SVG Version: 6.00 Build 0)  -->
<svg version="1.1" id="Layer_1" xmlns="http://www.w3.org/2000/svg" xmlns:xlink="http://www.w3.org/1999/xlink" x="0px" y="0px"
	 viewBox="0 0 36 39.07" style="enable-background:new 0 0 36 39.07;" xml:space="preserve">
<style type="text/css">
	.st0{fill:#467ABE;}
	.st1{fill-rule:evenodd;clip-rule:evenodd;fill:#FFFFFF;}
	.st2{fill:none;stroke:#010101;stroke-miterlimit:10;}
	.st3{font-family:'Calibri';}
	.st4{font-size:4.5472px;}
	.st5{fill:#FFFFFF;}
	.st6{font-size:1.74px;}
</style>
<path class="st0" d="M27.15,27.16c-3.4,3.4-6.79,6.79-10.19,10.19c-0.29,0.29-8.98-8.7-9.9-9.62C2.41,23.08,0.19,16.75,2.9,10.34
	c2.29-5.42-0.76,1.81,0,0"/>
<path d="M2.9,10.34C6.69,1.38,18.29-1.69,26.01,4.23c6.7,5.14,8.16,15.91,1.97,22.09c-0.28,0.28-0.56,0.56-0.83,0.83"/>
<path class="st1" d="M27.1,26.97c-0.15,0.18-0.3,0.35-0.44,0.53c-0.11,0.14-0.21,0.29-0.32,0.43c-0.03,0.04-0.06,0.07-0.1,0.09
	c-0.21,0.1-0.42,0.19-0.63,0.29c-0.27,0.13-0.53,0.27-0.79,0.4c-0.04,0.02-0.08,0.06-0.12,0.05c-0.13-0.02-0.17,0.04-0.25,0.14
	c-0.08,0.1-0.26,0.11-0.44,0.18c-0.04,0.04,0.06,0.25-0.14,0.23c-0.21-0.03-0.04-0.22-0.11-0.31c-0.17-0.03-0.34-0.06-0.5-0.11
	c-0.26-0.07-0.43,0.12-0.64,0.21c-0.07,0.03-0.16,0.02-0.22,0.06c-0.12,0.06-0.26,0.12-0.32,0.23c-0.13,0.2-0.26,0.14-0.41,0.07
	c-0.04-0.02-0.07-0.06-0.11-0.07c-0.12-0.02-0.26-0.06-0.37-0.03c-0.27,0.09-0.55,0.12-0.78-0.03c-0.43-0.28-0.88-0.17-1.34-0.15
	c-0.16,0.01-0.31-0.01-0.45-0.14c-0.14-0.13-0.34-0.19-0.51-0.26c-0.08-0.04-0.14-0.16-0.07-0.21c0.1-0.06,0.07-0.12,0.03-0.19
	c-0.02-0.05-0.03-0.11-0.03-0.17c0-0.19,0.2-0.37-0.01-0.52c0.12-0.07,0.22-0.12,0.31-0.19c0.09-0.07,0.25-0.08,0.21-0.26
	c-0.01-0.02,0.07-0.07,0.12-0.11c-0.07-0.13-0.08-0.23,0.06-0.34c0.13-0.1,0.08-0.28-0.07-0.32c-0.06-0.02-0.12-0.07-0.18-0.1
	c0.07-0.02,0.13-0.05,0.2-0.07c0.02-0.01,0.05-0.01,0.1-0.02c-0.08-0.24-0.05-0.49-0.23-0.69c-0.06-0.07-0.11-0.16-0.14-0.25
	c-0.07-0.17-0.18-0.23-0.32-0.19c0,0.12,0,0.24,0,0.36c-0.14-0.01-0.29-0.03-0.44-0.04c-0.12,0.29-0.36,0.12-0.53,0.09
	c-0.23-0.03-0.46-0.1-0.67-0.27c-0.15-0.13-0.41-0.13-0.62-0.18c-0.45-0.1-0.91-0.2-1.37-0.29c-0.06,0.03-0.15,0.08-0.24,0.09
	c-0.17,0.02-0.35-0.01-0.52,0.02c-0.07,0.01-0.16,0.09-0.18,0.15c-0.06,0.16-0.16,0.17-0.29,0.1c-0.15-0.09-0.3-0.18-0.44-0.28
	c-0.14-0.1-0.24,0.01-0.36,0.06c-0.12,0.05-0.23,0.12-0.35,0.15c-0.2,0.05-0.4,0.09-0.6,0.1c-0.1,0.01-0.21-0.05-0.31-0.07
	c-0.11-0.02-0.2-0.17-0.33-0.07c-0.05-0.08-0.09-0.15-0.12-0.2c-0.14-0.04-0.27-0.08-0.41-0.11c-0.3-0.08-0.59-0.19-0.84-0.37
	c-0.12-0.09-0.25-0.15-0.38-0.23c-0.04-0.02-0.07-0.06-0.09-0.1c-0.05-0.06-0.09-0.19-0.13-0.19c-0.12,0.01-0.23,0.06-0.34,0.1
	c-0.07,0.02-0.14,0.05-0.21,0.08c-0.03-0.09-0.1-0.18-0.08-0.26c0.03-0.19,0.05-0.34-0.15-0.47c-0.09-0.06-0.12-0.23-0.16-0.35
	c-0.04-0.13-0.17-0.25-0.1-0.41c0.02-0.04-0.02-0.12-0.06-0.16c-0.09-0.07-0.17-0.14-0.12-0.27c0.01-0.02-0.01-0.06-0.03-0.06
	c-0.21-0.09-0.13-0.21-0.05-0.34c0.02-0.04,0.03-0.11,0-0.14c-0.14-0.22-0.12-0.4,0.11-0.54c0.03-0.02,0.05-0.06,0.09-0.11
	c-0.07,0.01-0.12,0.02-0.15,0.01c-0.07-0.02-0.18-0.05-0.19-0.1c-0.02-0.08-0.01-0.19,0.03-0.27c0.08-0.16,0.22-0.29,0.15-0.5
	c-0.04-0.13-0.16-0.16-0.22-0.12c-0.14,0.11-0.25,0.06-0.36-0.01c-0.05,0.09-0.08,0.19-0.15,0.24c-0.04,0.03-0.13-0.01-0.23-0.02
	c-0.05,0.05-0.12,0.14-0.22,0.21c-0.04,0.03-0.12,0-0.18,0.01c-0.05,0-0.1,0.02-0.14,0.04c-0.05,0.02-0.09,0.05-0.13,0.08
	c-0.01-0.05-0.03-0.1-0.05-0.17c-0.24-0.04-0.27-0.24-0.3-0.45c-0.03-0.19-0.07-0.37-0.1-0.56c-0.03-0.17,0.09-0.26,0.22-0.31
	c0.1-0.04,0.13-0.08,0.12-0.19c-0.01-0.22,0.05-0.45,0.01-0.67c-0.06-0.38,0.23-0.61,0.32-0.92c0.01-0.03,0.05-0.06,0.08-0.08
	c0.23-0.11,0.23-0.11,0.19-0.35c0.03-0.01,0.06-0.01,0.08-0.03c0.05-0.05,0.09-0.1,0.14-0.15c-0.05-0.03-0.09-0.09-0.15-0.1
	c-0.18-0.03-0.29-0.22-0.19-0.42c-0.11-0.01-0.22-0.02-0.31-0.04c-0.04-0.01-0.1-0.09-0.09-0.1c0.1-0.16,0.21-0.31,0.33-0.46
	c0.09-0.11,0.19-0.22,0.3-0.36c0.02-0.21,0.02-0.21-0.23-0.17c-0.06,0.01-0.13,0-0.19,0c-0.05,0.09-0.08,0.18-0.14,0.25
	c-0.05,0.05-0.14,0.09-0.2,0.07c-0.06-0.01-0.12-0.08-0.15-0.14c-0.03-0.06-0.04-0.14-0.04-0.21c-0.01-0.12-0.07-0.16-0.19-0.13
	c0,0.15,0.01,0.3,0,0.45c0,0.04-0.06,0.08-0.09,0.13c-0.04-0.04-0.11-0.07-0.12-0.12c-0.04-0.12-0.05-0.24-0.08-0.41
	C5.06,14.93,5.01,15,4.94,15.03c-0.06,0.03-0.14,0.03-0.22,0.05C4.71,15,4.67,14.91,4.69,14.83c0.03-0.11,0.11-0.22,0.18-0.35
	c-0.1-0.02-0.16-0.03-0.23-0.05c0-0.06,0.01-0.11,0.01-0.16c-0.23-0.06-0.34-0.29-0.21-0.5c0.02-0.04,0.11-0.06,0.17-0.06
	c0.18-0.01,0.36,0,0.58,0c-0.17-0.09-0.3-0.16-0.47-0.25c0.09-0.05,0.13-0.08,0.17-0.1c-0.26-0.29-0.26-0.29-0.79-0.31
	c-0.01,0.01-0.02,0.02-0.02,0.03c-0.02,0.08-0.04,0.15-0.05,0.23c-0.08-0.04-0.17-0.07-0.24-0.12c-0.07-0.05-0.13-0.11-0.18-0.18
	c-0.11-0.15-0.08-0.26,0.09-0.32c0.03-0.01,0.05-0.02,0.06-0.02c-0.03-0.12-0.03-0.22-0.08-0.31c-0.04-0.08-0.15-0.14-0.19-0.22
	c-0.08-0.19-0.11-0.39-0.3-0.52c-0.03-0.02-0.01-0.13-0.02-0.21c-0.07,0.05-0.14,0.1-0.22,0.17c-0.04-0.1-0.09-0.19-0.11-0.27
	c-0.01-0.03,0.01-0.08,0.03-0.1c0.15-0.11,0.15-0.11-0.02-0.23c0.01-0.03,0.03-0.06,0.04-0.09c0.03-0.11,0.06-0.07,0.09,0
	C3,11,3.05,11.1,3.09,11.18c0.07-0.27,0.07-0.27-0.22-0.74c0.06,0.01,0.1,0.02,0.15,0.03c0.03-0.28,0.05-0.56,0.09-0.84
	c0.01-0.05,0.07-0.1,0.13-0.13c0.05-0.02,0.12-0.01,0.21-0.02c-0.04,0.09-0.07,0.18-0.12,0.3c0.14-0.02,0.27-0.03,0.4-0.05
	c0.04,0.1,0.09,0.19-0.06,0.29c-0.14,0.09-0.1,0.34,0.03,0.46c0.16,0.15,0.36,0.27,0.4,0.53c0.01,0.05,0.14,0.1,0.22,0.11
	c0.1,0,0.16,0.01,0.21,0.12c0.05,0.11,0.13,0.17,0.29,0.15c0.14-0.01,0.24-0.04,0.36-0.11c0.14-0.08,0.34,0.05,0.31,0.23
	c-0.07,0.39,0.27,0.49,0.45,0.71c0.01,0.02,0.05,0.04,0.07,0.03c0.27-0.07,0.44,0.11,0.65,0.22c0.1,0.06,0.23,0.06,0.35,0.07
	c0.3,0.03,0.48,0.25,0.69,0.41c0.24,0.18,0.46,0.37,0.76,0.62c0.19-0.08,0.51-0.21,0.83-0.33c0.1-0.04,0.21-0.08,0.32-0.09
	c0.42-0.05,0.81-0.28,1.25-0.21c0.09,0.01,0.18-0.08,0.28-0.1c0.14-0.02,0.12-0.13,0.14-0.22c0.03-0.13,0.07-0.26,0.1-0.37
	c0.21-0.07,0.42-0.13,0.63-0.21c0.04-0.02,0.06-0.1,0.07-0.15c0.03-0.15,0.04-0.31,0.08-0.45c0.09-0.29,0.21-0.57,0.31-0.85
	c0.04-0.1,0.07-0.18-0.06-0.24c-0.02-0.01-0.02-0.12,0-0.17c0.03-0.07,0.14-0.14,0.13-0.2c-0.02-0.11-0.09-0.22-0.14-0.33
	c-0.03-0.07-0.1-0.17-0.07-0.21c0.06-0.09,0.16-0.21,0.26-0.22c0.18-0.03,0.21-0.13,0.23-0.27c0.03-0.23,0.05-0.46,0.09-0.69
	c0.01-0.04,0.05-0.08,0.08-0.1c0.27-0.21,0.54-0.41,0.81-0.62c0.1-0.08,0.16-0.16,0.16-0.32c0-0.11,0.12-0.23,0.21-0.33
	c0.07-0.08,0.17-0.14,0.25-0.2c0.09-0.07,0.16-0.2,0.32-0.11c0.02,0.01,0.08-0.07,0.13-0.08c0.09-0.03,0.19-0.03,0.28-0.05
	c0.24-0.07,0.48-0.16,0.72-0.24c0.04-0.01,0.07-0.05,0.1-0.09c0.12-0.16,0.24-0.16,0.44-0.08c0.18,0.07,0.38,0.11,0.58,0.14
	c0.3,0.04,0.6,0.05,0.93,0.07c0.06-0.07,0.13-0.08,0.26-0.01c0.21,0.1,0.46,0.15,0.7,0.18c0.09,0.01,0.19-0.12,0.29-0.16
	c0.15-0.05,0.28-0.06,0.4,0.11c0.06,0.08,0.23,0.09,0.35,0.13c0.06,0.02,0.12,0.06,0.18,0.09c0.08,0.04,0.17,0.08,0.26,0.12
	c0.03,0.01,0.07,0.01,0.09,0.03c0.2,0.17,0.4,0.33,0.6,0.5c0.02,0.02,0.04,0.06,0.07,0.07c0.16,0.02,0.32,0.03,0.48,0.05
	c0.12,0.01,0.25,0.02,0.37,0.06c0.19,0.06,0.32-0.09,0.49-0.09c0.28-0.01,0.53,0.15,0.83,0.14c0.28-0.01,0.38,0.34,0.24,0.62
	c-0.02,0.05-0.06,0.1-0.09,0.15c0.17,0.07,0.32,0.16,0.31,0.37c0,0.02,0.06,0.05,0.09,0.05c0.1-0.03,0.26,0.04,0.28-0.11
	c0.04-0.23,0.18-0.18,0.33-0.15c0.21,0.04,0.41,0.06,0.62,0.09c0.06,0.01,0.11,0.04,0.16,0.06c0.09,0.04,0.19,0.07,0.28,0.11
	c0.07,0.03,0.14,0.06,0.21,0.09c0.05,0.02,0.1,0.05,0.14,0.04c0.23-0.05,0.24-0.05,0.27,0.19c0.01,0.11,0,0.26,0.13,0.21
	c0.12-0.13,0.2-0.22,0.31-0.36c0.04,0.2,0.08,0.37,0.12,0.57c0.05-0.07,0.09-0.11,0.11-0.16c0.05-0.14,0.16-0.16,0.27-0.12
	c0.36,0.14,0.66,0.35,0.83,0.71c0.04,0.09,0.02,0.2,0.03,0.3c0,0.08-0.01,0.15,0,0.23c0.03,0.2,0,0.24-0.17,0.23
	c0.01,0.19,0,0.38,0.03,0.57c0.03,0.17,0.12,0.34,0.18,0.5c0.05,0.13,0.09,0.25,0.18,0.37c0.1,0.13,0.1,0.34,0.14,0.51
	c0.05,0.21,0.05,0.45,0.17,0.61c0.17,0.23,0.11,0.32-0.1,0.44c-0.15,0.09-0.15,0.25-0.1,0.4c0.08,0.26-0.06,0.44-0.21,0.62
	c-0.03,0.04-0.11,0.05-0.18,0.09c0.01,0.02,0.01,0.06,0.03,0.08c0.17,0.17,0.34,0.34,0.51,0.51c0.02,0.02,0.06,0.05,0.09,0.05
	c0.38-0.04,0.51,0.25,0.67,0.49c0.06,0.08,0.08,0.14,0.21,0.15c0.17,0.01,0.35,0.07,0.51,0.14c0.05,0.02,0.1,0.17,0.07,0.24
	c-0.08,0.19-0.01,0.31,0.11,0.44c0.14,0.14,0.26,0.3,0.39,0.46c0.09,0.11,0,0.34-0.15,0.4c-0.3,0.12-0.32,0.2-0.27,0.51
	c0.05,0.25,0.04,0.51,0.02,0.76c-0.01,0.12-0.02,0.19,0.11,0.24c0.04,0.02,0.06,0.09,0.1,0.17c0.39-0.09,0.68,0.13,0.91,0.44
	c0.03,0.05,0,0.14-0.01,0.22C31.17,20,31.16,20,31.14,20.01c-0.05-0.05-0.1-0.1-0.16-0.17c-0.18,0.07-0.39,0.13-0.57,0.22
	c-0.05,0.03-0.06,0.17-0.06,0.26c0,0.07,0.05,0.14,0.1,0.2c0.15,0.16,0.04,0.25-0.08,0.36c-0.11,0.11-0.19,0.25-0.28,0.38
	c-0.15,0.23-0.3,0.45-0.45,0.68c-0.12,0.18-0.17,0.44-0.43,0.45c0.02,0.15,0.04,0.27,0.06,0.39c0.01,0.03,0.02,0.06,0.04,0.09
	c0.05,0.07,0.15,0.14,0.15,0.21c0,0.18,0.01,0.38-0.07,0.54c-0.05,0.1-0.23,0.16-0.36,0.18c-0.17,0.02-0.23,0.14-0.34,0.23
	c-0.06,0.05-0.11,0.1-0.17,0.16c-0.1,0.11-0.2,0.21-0.28,0.33c-0.06,0.09-0.12,0.2-0.15,0.31c-0.05,0.2-0.07,0.4-0.11,0.6
	c-0.01,0.06-0.04,0.12-0.04,0.13c0.02,0.1,0.04,0.16,0.05,0.22c0,0.02-0.01,0.05,0,0.05c0.25,0.27,0.04,0.54-0.09,0.71"/>
<path class="st1" d="M28.26,27.02c-0.17,0.21-0.47,0.31-0.72,0.46c-0.02,0.01-0.07-0.02-0.1-0.03"/>
<path class="st2" d="M32.1,4.94c-1.01,0.08-2.41,0.49-4.09,1.17"/>
<path class="st2" d="M3.36,23.53c-1.93,2.2-2.83,3.91-2.27,4.71c1.27,1.82,9.6-1.83,18.61-8.14c6.59-4.61,11.71-9.37,13.49-12.31"/>
<text transform="matrix(0.809 -0.5878 0.5878 0.809 13.7349 23.297)" class="st3 st4">MAPPPD</text>
<text transform="matrix(0.7071 0.7071 -0.7071 0.7071 8.7073 28.4236)" class="st5 st3 st6">penguinmap.org</text>
<g>
	<path d="M33.4,6.08c0.04-0.13,0.11-0.25,0.21-0.35c0.1-0.1,0.22-0.17,0.35-0.21l-0.12-0.12l0.05-0.05l0.07,0.07
		c0.01,0.01,0.04,0.01,0.05,0l0.72-0.72c0.01-0.01,0.01-0.04,0-0.05l-0.61-0.61c-0.01-0.01-0.04-0.01-0.05,0l-0.72,0.72
		c-0.01,0.01-0.01,0.04,0,0.05l0.07,0.07l-0.05,0.05l-0.18-0.18c-0.02-0.02-0.04-0.02-0.06,0l-0.5,0.5c-0.02,0.02-0.02,0.04,0,0.06
		l0.18,0.18l-0.05,0.05l-0.07-0.07c-0.01-0.01-0.04-0.01-0.05,0L31.92,6.2c-0.01,0.01-0.01,0.04,0,0.05l0.61,0.61
		c0.01,0.01,0.04,0.01,0.05,0l0.72-0.72c0.01-0.01,0.01-0.04,0-0.05l-0.07-0.07l0.05-0.05L33.4,6.08z M33.99,5.31l-0.14-0.14
		L34.03,5l0.14,0.14L33.99,5.31z M33.98,4.95L33.8,5.12l-0.14-0.14l0.17-0.17L33.98,4.95z M33.89,4.76l0.17-0.17l0.14,0.14
		L34.03,4.9L33.89,4.76z M34.22,5.08l-0.14-0.14l0.17-0.17l0.14,0.14L34.22,5.08z M34.62,4.68l-0.17,0.17l-0.14-0.14l0.17-0.17
		L34.62,4.68z M34.43,4.5l-0.17,0.17l-0.14-0.14l0.17-0.17L34.43,4.5z M34.1,4.17l0.14,0.14l-0.17,0.17l-0.14-0.14L34.1,4.17z
		 M33.88,4.4l0.14,0.14l-0.17,0.17L33.7,4.57L33.88,4.4z M33.65,4.62l0.14,0.14l-0.17,0.17L33.48,4.8L33.65,4.62z M33.48,4.95
		l0.36,0.36l-0.05,0.05L33.42,5L33.48,4.95z M32.68,5.97l0.17-0.17l0.14,0.14l-0.17,0.17L32.68,5.97z M32.77,6.16l-0.17,0.17
		l-0.14-0.14l0.17-0.17L32.77,6.16z M32.67,5.61l0.14,0.14l-0.17,0.17l-0.14-0.14L32.67,5.61z M32.44,5.83l0.14,0.14L32.4,6.14
		l-0.14-0.14L32.44,5.83z M32.04,6.23l0.17-0.17l0.14,0.14l-0.17,0.17L32.04,6.23z M32.23,6.42l0.17-0.17l0.14,0.14l-0.17,0.17
		L32.23,6.42z M32.56,6.74l-0.14-0.14l0.17-0.17l0.14,0.14L32.56,6.74z M32.78,6.52l-0.14-0.14l0.17-0.17l0.14,0.14L32.78,6.52z
		 M33.01,6.29l-0.14-0.14l0.17-0.17l0.14,0.14L33.01,6.29z M33.18,5.97L32.82,5.6l0.05-0.05l0.36,0.36L33.18,5.97z"/>
	<path d="M34.61,6.48c-0.04-0.04-0.08-0.05-0.13-0.05c-0.01,0-0.02,0-0.03,0l-0.1-0.22c0,0,0-0.01,0-0.01c0,0,0,0,0,0l0,0l0,0h0v0
		c0,0,0,0,0,0l0,0c-0.02-0.01-0.09,0.04-0.16,0.11c-0.07,0.07-0.12,0.14-0.11,0.16l0,0l0,0l0,0l0,0c0,0,0,0,0,0c0,0,0,0,0.01,0
		l0.22,0.1c-0.01,0.06,0.01,0.12,0.05,0.16c0.04,0.04,0.08,0.05,0.13,0.05c0.05,0,0.09-0.02,0.13-0.05
		C34.68,6.67,34.68,6.55,34.61,6.48z M34.56,6.69c-0.02,0.02-0.05,0.03-0.08,0.03c-0.03,0-0.06-0.01-0.08-0.03
		c-0.04-0.04-0.04-0.11,0-0.16c0.02-0.02,0.05-0.03,0.08-0.03c0.03,0,0.06,0.01,0.08,0.03C34.6,6.57,34.6,6.64,34.56,6.69z"/>
	<path d="M34.48,6.93v0.07c0.11,0,0.21-0.04,0.28-0.12c0.08-0.08,0.12-0.18,0.12-0.28H34.8c0,0.09-0.03,0.17-0.1,0.23
		C34.65,6.9,34.57,6.93,34.48,6.93z"/>
	<path d="M34.48,7.15v0.07c0.16,0,0.32-0.06,0.44-0.18c0.12-0.12,0.18-0.27,0.18-0.44h-0.07c0,0.15-0.06,0.28-0.16,0.38
		C34.76,7.09,34.62,7.15,34.48,7.15z"/>
	<path d="M35.24,6.61c0,0.2-0.08,0.39-0.22,0.54c-0.14,0.14-0.34,0.22-0.54,0.22v0.07c0.22,0,0.43-0.09,0.59-0.24
		c0.16-0.16,0.24-0.37,0.24-0.59H35.24z"/>
	<path d="M33.74,6.81c0.04-0.09,0.17-0.28,0.42-0.53c0.25-0.25,0.44-0.38,0.53-0.42c-0.03,0.07-0.11,0.19-0.25,0.35l0.03,0.07
		c0.22-0.24,0.34-0.45,0.29-0.5c-0.3-0.3-0.79-0.3-1.09,0c-0.3,0.3-0.3,0.79,0,1.09c0.01,0.01,0.02,0.01,0.03,0.01
		c0.08,0,0.26-0.12,0.47-0.3l-0.07-0.03C33.93,6.7,33.8,6.78,33.74,6.81z"/>
</g>
</svg>
